<?xml version="1.0" standalone="no"?>
<!DOCTYPE svg PUBLIC "-//W3C//DTD SVG 1.1//EN" "http://www.w3.org/Graphics/SVG/1.1/DTD/svg11.dtd" >
<svg xmlns="http://www.w3.org/2000/svg">
<metadata>
<json>
{
	"fontFamily": "centiq",
	"majorVersion": 1,
	"minorVersion": 0,
	"version": "Version 1.0",
	"fontId": "centiq",
	"psName": "centiq",
	"subFamily": "Regular",
	"fullName": "centiq",
	"description": "Font generated by IcoMoon."
}
</json>
</metadata>
<defs>
<font id="centiq" horiz-adv-x="1024">
<font-face units-per-em="1024" ascent="960" descent="-64" />
<missing-glyph horiz-adv-x="1024" />
<glyph unicode="&#x20;" d="" horiz-adv-x="512" />
<glyph unicode="&#x28;" d="M999.952 340.256l-148.048-77.2c-15.728-8.208-41.2-8.208-56.928 0l-278.976 145.52-279.008-145.536c-15.728-8.208-41.232-8.208-56.96 0l-147.984 77.2c-15.76 8.224-15.76 21.536 0 29.696l455.488 237.648c15.728 8.192 41.184 8.192 56.912-0.016l455.488-237.632c15.776-8.16 15.776-21.472 0.016-29.68zM999.952 29.36l-148.048-77.216c-15.728-8.208-41.2-8.208-56.928 0l-278.976 145.552-279.008-145.568c-15.728-8.208-41.232-8.208-56.96 0l-147.984 77.216c-15.76 8.24-15.76 21.52 0 29.696l455.488 237.648c15.728 8.192 41.184 8.192 56.912-0.032l455.488-237.616c15.776-8.16 15.776-21.44 0.016-29.68z" data-tags="centiq-icon-set2_normal" />
<glyph unicode="&#x29;" d="M512 800c194.096 0 352-157.904 352-352s-157.904-352-352-352-352 157.904-352 352 157.904 352 352 352zM512 928c-265.088 0-480-214.912-480-480s214.912-480 480-480 480 214.912 480 480-214.912 480-480 480v0zM791.664 569.728l-6.752 16.304c-9.312 22.496-29.36 30.8-51.84 21.472l-268.8-111.344c-19.888-8.24-34.96-27.472-31.76-47.376-1.52-12.944 2.48-26.416 12.416-36.336l205.728-205.744c17.216-17.2 45.12-17.2 62.336 0l12.464 12.464c17.216 17.232 17.216 45.136 0 62.352l-147.28 147.296 195.408 80.944c22.48 9.312 27.408 37.488 18.080 59.968z" data-tags="centiq-icon-set2_scheduled" />
<glyph unicode="&#x2f;" d="M768 320v128h-320v128h320v128l192-192zM704 384v-256h-320v-192l-384 192v832h704v-320h-64v256h-512l256-128v-576h256v192z" data-tags="exit, sign out, log out, quit, close, logout" />
<glyph unicode="&#x30;" d="M192-64h640l64 704h-768zM640 832v128h-256v-128h-320v-192l64 64h768l64-64v192h-320zM576 832h-128v64h128v-64z" data-tags="remove, delete, trashcan, recycle bin, bin, dispose" />
<glyph unicode="&#x31;" d="M512 928c-264.656 0-480-215.328-480-479.984 0-264.688 215.344-480.016 480-480.016 138.816 0 270.736 60.112 362.016 164.784 13.152 15.088 25.504 31.248 36.672 47.728l1.136 1.504c8.096 11.552 11.28 24.464 11.28 39.616 0 39.376-31.904 71.328-71.328 71.328-26.976 0-50.464-15.008-62.56-37.2-7.072-10.144-14.576-20-22.688-29.28-64.16-73.664-156.912-115.872-254.528-115.872-186.048 0-337.376 151.328-337.376 337.408s151.328 337.424 337.376 337.424c161.616 0 296.96-114.224 329.712-266.128h-140.256c-28.912 76.592-102.832 131.36-189.456 131.36-111.744 0-202.624-90.96-202.624-202.672 0-111.76 90.864-202.656 202.624-202.656 86.624 0 160.544 54.72 189.456 131.344h222.144v0.672c37.2 2.672 66.688 33.056 68.032 70.624h0.368c0 264.688-215.264 480.016-480 480.016zM512 368.96c-43.584 0-79.072 35.44-79.072 79.056s35.488 79.056 79.072 79.056c43.6 0 79.072-35.44 79.072-79.056 0-43.632-35.472-79.056-79.072-79.056z" data-tags="centiq-icon-set2_cen-icon-centiq" />
<glyph unicode="&#x32;" d="M896 704h-768c-53.008 0-96 42.992-96 96s42.992 96 96 96h768c53.008 0 96-42.992 96-96s-42.992-96-96-96zM896 352h-768c-53.008 0-96 42.992-96 96s42.992 96 96 96h768c53.008 0 96-42.992 96-96s-42.992-96-96-96zM896 0h-768c-53.008 0-96 42.992-96 96s42.992 96 96 96h768c53.008 0 96-42.992 96-96s-42.992-96-96-96z" data-tags="centiq-icon-set2_cen-icon-menu" />
<glyph unicode="&#x33;" d="M936.48 306c-12.768 0-25.536 4.864-35.264 14.608l-394.88 394.88-394.88-394.88c-19.472-19.488-51.040-19.488-70.512 0-19.472 19.472-19.472 51.024 0 70.496l465.392 465.408 465.392-465.408c19.472-19.472 19.472-51.024 0-70.496-9.728-9.744-22.496-14.608-35.248-14.608zM504 653.664l-344-347.040v-274.624h240v272h208v-272h240v274.624z" data-tags="centiq-icon-set2_cen-icon-home" />
<glyph unicode="&#x34;" d="M979.936 70.368l-183.968 183.984c52.832 70.336 84.144 157.728 84.144 252.464 0 232.368-188.384 420.768-420.768 420.768s-420.784-188.4-420.784-420.768c0-232.4 188.4-420.8 420.784-420.8 91.776 0 176.64 29.488 245.792 79.36l184.912-184.912c12.416-12.4 28.688-18.608 44.96-18.608s32.544 6.208 44.944 18.608c24.816 24.832 24.816 65.072-0.016 89.904zM165.68 506.816c0 161.92 131.728 293.648 293.664 293.648 161.904 0 293.632-131.728 293.632-293.648 0-161.936-131.712-293.664-293.632-293.664s-293.664 131.728-293.664 293.664z" data-tags="centiq-icon-set2_cen-icon-search" />
<glyph unicode="&#x35;" d="M951.296 503.872c-0.032 0.304-0.064 0.576-0.096 0.88l-117.328 29.312-0.752 4.64c-8.256 26.256-18.32 50.176-30.112 71.776l-2.304 3.856 61.712 103.44c-0.112 0.144-0.24 0.304-0.352 0.448 5.84 9.040 9.328 19.76 9.328 31.312 0 31.952-25.888 57.84-57.84 57.84-11.36 0-21.856-3.392-30.816-9.040-0.208 0.16-0.384 0.336-0.592 0.496l-103.424-62.528-3.856 2.32c-23.168 12.848-47.072 22.896-71.792 30.096l-4.656 0.768-29.296 117.312c-0.384 0.048-0.752 0.064-1.136 0.112-7.648 23.776-29.664 41.088-55.984 41.088s-48.336-17.312-55.984-41.088c-0.4-0.032-0.736-0.064-1.136-0.112l-29.296-117.328-3.872-0.768c-25.728-7.216-49.936-17.248-72.576-30.096l-3.856-2.32-102.656 62.528c-0.368-0.288-0.704-0.608-1.056-0.896-9.136 5.92-19.968 9.44-31.664 9.44-32.32 0-58.464-26.176-58.464-58.448 0-14.32 5.344-27.248 13.888-37.408l58-97.168-2.32-3.856c-12.88-24.192-22.64-48.112-29.328-71.776l-1.536-4.64-116.56-29.312c-0.032-0.224-0.048-0.416-0.080-0.64-24-7.52-41.504-29.664-41.504-56.112s17.504-48.592 41.488-56.112c0.032-0.224 0.048-0.4 0.080-0.64l116.56-29.328 1.536-4.624c7.232-25.232 17.008-49.152 29.328-71.776l2.32-3.872-61.728-103.424c0.016 0 0.016-0.016 0.032-0.032-7.104-9.6-11.44-21.344-11.44-34.208 0-31.952 25.888-57.84 57.856-57.84 12.832 0 24.56 4.32 34.16 11.376 0.144-0.112 0.288-0.24 0.432-0.352l102.656 62.528 3.856-2.32c23.168-13.392 47.328-23.424 72.576-30.112l3.872-1.536 29.296-116.56c0.4-0.048 0.752-0.064 1.152-0.112 7.632-23.744 29.648-41.056 55.968-41.056s48.336 17.296 55.984 41.056c0.384 0.048 0.752 0.064 1.136 0.112l29.296 116.56 4.656 1.536c23.664 6.672 47.6 16.72 71.792 30.112l3.856 2.32 103.424-62.528c0.016 0 0.048 0.016 0.064 0.048 9.52-6.896 21.12-11.072 33.792-11.072 31.952 0 58.624 25.904 58.624 57.84 0 12.848-10.64 24.624-10.64 34.208v0.016l-62.512 103.424 1.92 3.872c12.336 22.64 22.176 46.56 29.904 71.776l0.64 4.624 117.296 29.328c0.048 0.304 0.032 0.576 0.064 0.88 23.6 7.744 40.672 29.68 40.672 55.872s-17.088 48.128-40.672 55.888zM653.968 306.512c-39.264-39.248-86.576-58.848-141.968-58.848-55.44 0-102.752 19.6-141.984 58.848-39.216 39.216-58.848 86.512-58.848 141.952 0 54.784 19.632 101.792 58.848 141.024 39.232 39.2 86.544 58.848 141.984 58.848 55.392 0 102.704-19.648 141.968-58.848 39.232-39.232 58.864-86.256 58.864-141.024 0-55.44-19.632-102.736-58.864-141.952z" data-tags="centiq-icon-set2_cen-icon-settings" />
<glyph unicode="&#x36;" d="M32 832v-675.824c0-57.152 48.064-108.176 105.216-108.176h758.944c57.152 0 95.84 51.024 95.84 108.176v675.824h-960zM777.408 787.008c21.072 0 38.192-17.104 38.192-38.192s-17.104-38.192-38.192-38.192c-21.104 0-38.208 17.104-38.208 38.192s17.104 38.192 38.208 38.192zM464 144h-352v144h352v-144zM464 352h-352v304h352v-304zM912 144h-384v512h384v-512zM895.968 710.624c-21.088 0-38.208 17.104-38.208 38.192s17.104 38.192 38.208 38.192 38.192-17.104 38.192-38.192-17.104-38.192-38.192-38.192z" data-tags="centiq-icon-set2_cen-icon-capacity" />
<glyph unicode="&#x37;" d="M32 832v-675.824c0-57.152 48.064-108.176 105.216-108.176h758.944c57.152 0 95.84 51.024 95.84 108.176v675.824h-960zM777.408 787.008c21.072 0 38.192-17.104 38.192-38.192s-17.104-38.192-38.192-38.192c-21.104 0-38.208 17.104-38.208 38.192s17.104 38.192 38.208 38.192zM912 144h-800v512h800v-512zM895.968 710.624c-21.088 0-38.208 17.104-38.208 38.192s17.104 38.192 38.208 38.192 38.192-17.104 38.192-38.192-17.104-38.192-38.192-38.192zM215.136 233.44c-9.712 0-19.408 3.712-26.8 11.136-14.688 14.8-14.624 38.72 0.16 53.408l144.256 143.328 54.848-54.832 117.712 118.416 115.184-115.2 161.6 162.24c14.752 14.768 38.64 14.816 53.424 0.096 14.8-14.72 14.832-38.64 0.128-53.408l-215.040-215.856-115.12 115.12-117.712-118.4-55.168 55.152-90.816-90.256c-7.408-7.28-17.040-10.944-26.656-10.944z" data-tags="centiq-icon-set2_cen-icon-admin" />
<glyph unicode="&#x38;" d="M32 832v-675.824c0-57.152 48.064-108.176 105.216-108.176h758.944c57.152 0 95.84 51.024 95.84 108.176v675.824h-960zM777.408 787.008c21.072 0 38.192-17.104 38.192-38.192s-17.104-38.192-38.192-38.192c-21.104 0-38.208 17.104-38.208 38.192s17.104 38.192 38.208 38.192zM912 144h-800v512h800v-512zM895.968 710.624c-21.088 0-38.208 17.104-38.208 38.192s17.104 38.192 38.208 38.192 38.192-17.104 38.192-38.192-17.104-38.192-38.192-38.192zM832 192v169.024c0 15.824-12.224 22.976-28.416 22.976h-117.568c-16.224 0-30.016-7.152-30.016-22.976v-169.024h176zM608 192v375.328c0 15.808-16.96 24.672-33.168 24.672h-117.552c-16.208 0-41.28-8.864-41.28-24.672v-375.328h192zM368 192v279.328c0 15.808-6.688 24.672-22.928 24.672h-117.536c-16.208 0-35.536-8.864-35.536-24.672v-279.328h176z" data-tags="centiq-icon-set2_cen-icon-commercial" />
<glyph unicode="&#x39;" d="M32 832v-675.824c0-57.152 48.064-108.176 105.216-108.176h758.944c57.152 0 95.84 51.024 95.84 108.176v675.824h-960zM777.408 787.008c21.072 0 38.192-17.104 38.192-38.192s-17.104-38.192-38.192-38.192c-21.104 0-38.208 17.104-38.208 38.192s17.104 38.192 38.208 38.192zM912 144h-800v512h800v-512zM895.968 710.624c-21.088 0-38.208 17.104-38.208 38.192s17.104 38.192 38.208 38.192 38.192-17.104 38.192-38.192-17.104-38.192-38.192-38.192zM705.632 424.224c-0.016 0.144-0.032 0.256-0.032 0.384l-50.992 12.736-0.336 2c-3.584 11.408-7.952 21.792-13.088 31.184l-0.976 1.68 26.8 44.96c-0.064 0.064-0.112 0.128-0.16 0.192 2.544 3.936 4.064 8.576 4.064 13.616 0 13.888-11.248 25.136-25.136 25.136-4.96 0-9.52-1.472-13.392-3.936-0.096 0.080-0.176 0.144-0.272 0.224l-44.944-27.168-1.664 1.008c-10.080 5.584-20.464 9.936-31.2 13.072l-2.048 0.336-12.72 50.976c-0.192 0.032-0.336 0.032-0.496 0.048-3.312 10.336-12.88 17.856-24.32 17.856-11.456 0-21.008-7.536-24.336-17.856-0.192-0.016-0.336-0.016-0.496-0.048l-12.72-50.976-1.696-0.336c-11.168-3.136-21.68-7.504-31.536-13.072l-1.664-1.008-44.624 27.168c-0.176-0.128-0.32-0.256-0.464-0.384-3.968 2.576-8.672 4.096-13.744 4.096-14.048 0-25.424-11.36-25.424-25.392 0-6.224 2.336-11.84 6.032-16.272l25.2-42.224-1.008-1.68c-5.584-10.512-9.824-20.896-12.736-31.184l-0.672-2-50.64-12.736c-0.016-0.096-0.016-0.176-0.032-0.288-10.432-3.28-18.032-12.88-18.032-24.368 0-11.504 7.6-21.104 18.032-24.384 0.016-0.096 0.016-0.176 0.032-0.288l50.64-12.736 0.672-2.016c3.136-10.96 7.392-21.344 12.736-31.184l1.008-1.68-26.816-44.944c0 0 0 0 0.016-0.016-3.088-4.16-4.976-9.28-4.976-14.864 0-13.888 11.248-25.136 25.136-25.136 5.552 0 10.672 1.872 14.832 4.944 0.064-0.048 0.128-0.096 0.208-0.144l44.624 27.168 1.664-1.008c10.080-5.824 20.56-10.176 31.536-13.088l1.696-0.672 12.72-50.656c0.16-0.032 0.32-0.032 0.496-0.048 3.328-10.32 12.88-17.84 24.336-17.84 11.44 0 20.992 7.536 24.32 17.84 0.16 0.016 0.32 0.032 0.496 0.048l12.72 50.656 2.048 0.672c10.272 2.912 20.672 7.264 31.2 13.088l1.664 1.008 44.944-27.168c0 0 0.032 0 0.048 0.016 4.112-3.008 9.168-4.816 14.672-4.816 13.904 0 25.472 11.264 25.472 25.136 0 5.584-4.624 10.688-4.624 14.864v0l-27.152 44.944 0.848 1.68c5.36 9.84 9.648 20.224 12.992 31.184l-0.512 2.016 50.144 12.752c0 0.128 0 0.256 0 0.384 16 3.36 18.496 12.896 18.496 24.272s-6.624 20.912-16.864 24.272zM576.416 338.48c-17.040-17.072-37.616-25.584-61.664-25.584-24.096 0-44.64 8.512-61.68 25.584-17.056 17.024-25.584 37.584-25.584 61.664 0 23.792 8.512 44.24 25.584 61.28 17.040 17.040 37.6 25.568 61.68 25.568 24.064 0 44.624-8.528 61.664-25.568 17.056-17.040 25.6-37.488 25.6-61.28 0-24.080-8.528-44.624-25.6-61.664z" data-tags="centiq-icon-set2_cen-icon-dashboard" />
<glyph unicode="&#x3c;" d="M32 448c0-265.072 214.976-480 480-480 265.12 0 480 214.928 480 480s-214.88 480-480 480c-265.024 0-480-214.928-480-480zM689.088 448.416l-240-240.416-94.128 94.128 146.336 145.92-146.336 146.304 94.128 93.648 240-239.584z" data-tags="centiq-icon-set2_collapsed" />
<glyph unicode="&#x3e;" d="M512 928c-265.072 0-480-214.976-480-480 0-265.12 214.928-480 480-480s480 214.88 480 480c0 265.024-214.928 480-480 480zM512.416 270.912l-240.416 240 94.128 94.128 145.92-146.336 146.304 146.336 93.648-94.128-239.584-240z" data-tags="centiq-icon-set2_expanded" />
<glyph unicode="&#x5b;" d="M999.952 37.36l-148.048-77.216c-15.728-8.208-41.2-8.208-56.928 0l-278.976 145.552-279.008-145.568c-15.728-8.208-41.232-8.208-56.96 0l-147.984 77.216c-15.76 8.24-15.76 21.52 0 29.696l455.488 237.648c15.728 8.192 41.184 8.192 56.912-0.032l455.488-237.616c15.776-8.16 15.776-21.44 0.016-29.68z" data-tags="centiq-icon-set2_low" />
<glyph unicode="&#x5c;" d="M259.891 816.64c0-54.426-40.192-98.509-106.291-98.509-62.208 0-102.4 44.083-102.4 98.509 0 55.706 41.523 98.509 105.011 98.509s102.4-42.803 103.68-98.509zM56.422 6.451v633.856h197.018v-633.856h-197.018zM371.354 438.118c0 79.053-2.611 145.152-5.222 202.189h171.11l9.114-88.166h3.891c25.907 41.523 89.446 102.4 195.738 102.4 129.587 0 226.816-86.835 226.816-273.51v-374.63h-197.018v351.283c0 81.664-28.57 137.421-99.84 137.421-54.426 0-86.784-37.581-101.069-73.882-5.222-12.954-6.502-31.078-6.502-49.254v-365.568h-197.018v431.718z" data-tags="linkedin, social" />
<glyph unicode="&#x5d;" d="M999.952 356.256l-148.048-77.2c-15.728-8.208-41.2-8.208-56.928 0l-278.976 145.52-279.008-145.536c-15.728-8.208-41.232-8.208-56.96 0l-147.984 77.2c-15.76 8.224-15.76 21.536 0 29.696l455.488 237.648c15.728 8.192 41.184 8.192 56.912-0.016l455.488-237.632c15.776-8.16 15.776-21.472 0.016-29.68zM999.952 676.256l-148.048-77.2c-15.728-8.208-41.2-8.208-56.928 0l-278.976 145.52-279.008-145.536c-15.728-8.208-41.232-8.208-56.96 0l-147.984 77.2c-15.76 8.224-15.76 21.536 0 29.696l455.488 237.664c15.728 8.192 41.184 8.192 56.912-0.016l455.488-237.632c15.776-8.176 15.776-21.488 0.016-29.696zM999.952 45.36l-148.048-77.216c-15.728-8.208-41.2-8.208-56.928 0l-278.976 145.552-279.008-145.568c-15.728-8.208-41.232-8.208-56.96 0l-147.984 77.216c-15.76 8.24-15.76 21.52 0 29.696l455.488 237.648c15.728 8.192 41.184 8.192 56.912-0.032l455.488-237.616c15.776-8.16 15.776-21.44 0.016-29.68z" data-tags="centiq-icon-set2_high" />
<glyph unicode="&#x5e;" d="M957.712 722.272v-685.648c0-18.608-6.752-34.688-20.336-48.288-13.6-13.488-29.68-20.336-48.24-20.336h-754.32c-18.512 0-34.64 6.848-48.192 20.336-13.6 13.6-20.336 29.664-20.336 48.288v685.648c0 18.608 6.752 34.688 20.336 48.288 13.552 13.504 29.664 20.336 48.192 20.336h68.624v51.424c0 23.584 8.336 43.728 25.12 60.56 16.832 16.736 36.992 25.12 60.576 25.12h34.272c23.584 0 43.776-8.384 60.56-25.12 16.784-16.832 25.168-36.992 25.168-60.56v-51.424h205.728v51.424c0 23.584 8.384 43.728 25.168 60.56 16.784 16.736 36.992 25.12 60.528 25.12h34.32c23.536 0 43.728-8.384 60.512-25.12 16.784-16.832 25.168-36.992 25.168-60.56v-51.424h68.576c18.56 0 34.64-6.848 48.24-20.336 13.584-13.6 20.336-29.68 20.336-48.288zM134.816 430.896h154.32v154.32h-154.32v-154.32zM134.816 225.152h154.32v171.472h-154.32v-171.472zM134.816 36.624h154.32v154.224h-154.32v-154.224zM340.608 688v154.32c0 4.64-1.728 8.624-5.104 12.048-3.376 3.376-7.408 5.056-12.096 5.056h-34.272c-4.64 0-8.672-1.68-12.048-5.056-3.376-3.424-5.104-7.408-5.104-12.048v-154.32c0-4.592 1.728-8.624 5.104-12 3.376-3.424 7.408-5.104 12.048-5.104h34.272c4.688 0 8.72 1.68 12.096 5.104 3.36 3.376 5.104 7.408 5.104 12zM323.392 430.896h171.424v154.32h-171.424v-154.32zM323.392 225.152h171.424v171.472h-171.424v-171.472zM323.392 36.624h171.424v154.224h-171.424v-154.224zM529.184 430.896h171.376v154.32h-171.376v-154.32zM529.184 225.152h171.376v171.472h-171.376v-171.472zM529.184 36.624h171.376v154.224h-171.376v-154.224zM752.016 688v154.32c0 4.64-1.728 8.624-5.104 12.048-3.376 3.376-7.408 5.056-12.048 5.056h-34.32c-4.64 0-8.672-1.68-12.048-5.056-3.376-3.424-5.104-7.408-5.104-12.048v-154.32c0-4.592 1.728-8.624 5.104-12 3.376-3.424 7.408-5.104 12.048-5.104h34.32c4.64 0 8.672 1.68 12.048 5.104 3.376 3.376 5.104 7.408 5.104 12zM734.864 430.896h154.272v154.32h-154.272v-154.32zM734.864 225.152h154.272v171.472h-154.272v-171.472zM734.864 36.624h154.272v154.224h-154.272v-154.224z" data-tags="centiq-icon-set2_date" />
<glyph unicode="&#x61;" d="M930.72 508.832c-33.824 0-61.264-27.744-61.264-61.584 0-197.104-160.368-358.096-357.456-358.096-197.104 0-357.456 158.976-357.456 356.064s160.352 354.784 357.456 354.784h0.032c61.184 0 121.040-14 174.080-43.424l-49.072-46.496c-24.432-23.2-17.568-48.192 15.344-55.568l221.792-49.744c32.896-7.376 55.168 13.776 49.552 47.008l-38.032 224.128c-5.664 33.232-30.256 41.44-54.736 18.24l-55.040-52.24c-4.544 5.792-10.112 13.584-16.88 17.648-74.4 44.736-159.824 68.448-247.008 68.448h-0.032c-264.672 0-480-215.392-480-480.064s215.328-478.752 480-478.752 480 214.528 480 479.2c0 33.84-27.44 60.448-61.28 60.448z" data-tags="centiq-icon-set2_cen-icon-refresh" />
<glyph unicode="&#x62;" d="M256 640c0 141.385 114.615 256 256 256s256-114.615 256-256c0-141.385-114.615-256-256-256s-256 114.615-256 256zM768 320h-512c-141.384 0-256-114.618-256-256v-64h1024v64c0 141.382-114.616 256-256 256z" data-tags="user, profile, avatar, person, talk, member" />
<glyph unicode="&#x63;" d="M0-64h512v1024h-512v-1024zM320 832h128v-128h-128v128zM320 576h128v-128h-128v128zM320 320h128v-128h-128v128zM64 832h128v-128h-128v128zM64 576h128v-128h-128v128zM64 320h128v-128h-128v128zM576 640h448v-64h-448zM576-64h128v256h192v-256h128v576h-448z" data-tags="office, home, house, work, building" />
<glyph unicode="&#x64;" d="M843.856 197.376h-78.416v231.568c-0.512 74.032-31.616 113.664-88.64 113.664-55.536 0-89.6-43.328-89.664-116.304v-228.944h-149.136v228.96c-0.048 72.96-34.128 116.304-89.632 116.304-57.52 0-88.704-40.256-88.704-115.44v-229.792h-156.896v253.072c0 74.784 30.336 142.496 78.432 189.856 0 0.016 0.048 0.016 0.048 0.048 43.168 42.448 100.56 68.512 163.216 68.512 65.696 0 124.72-29.456 168.112-77.632v0c43.408 48.16 102.416 77.616 168.112 77.616 62.64 0 120-26.016 163.168-68.448 0.016-0.016 0.032-0.048 0.048-0.080 48.128-47.344 78.48-115.072 78.48-189.888v-251.632c44.16 72.608 69.616 157.904 69.616 249.184 0 265.92-215.936 480.832-481.472 480-264.624-0.816-478.528-215.696-478.528-480 0-264.288 213.904-479.184 478.528-480 173.76-0.544 326.256 91.328 410.928 229.376h-77.6z" data-tags="centiq-icon-set2_cen-icon-monitiq" />
<glyph unicode="&#x65;" d="M863.472 474.816l128.528-0.272c-13.2 242.704-206.304 437.616-448.432 453.376l-0.288-128.672c171.296-15.088 307.248-152.592 320.192-324.432zM481.44 799.312l0.288 128.688c-241.936-15.008-435.488-208.976-449.728-451.392l128.528-0.256c13.648 171.536 149.84 308.272 320.912 322.96zM541.776 96.672l-0.32-128.672c240 14.528 432.672 205.2 450.016 444.704l-128.768 0.304c-16.624-168.64-151.808-302.176-320.928-316.336zM160.992 414.48l-128.736 0.304c16.32-239.36 207.792-430.736 447.408-446.624l0.288 128.704c-168.784 15.232-303.056 149.152-318.96 317.616zM543.12 734.416l-0.288-134.992c61.776-12.528 110.16-61.904 121.248-124.176l134.592-0.304c-12.624 136.192-119.888 244.864-255.552 259.472zM481.024 599.488l0.272 134.992c-135.408-14.336-242.8-122.4-255.984-258.304l134.656-0.288c11.28 62.032 59.504 111.104 121.056 123.6zM542.16 296.448l-0.272-134.976c133.472 13.824 239.936 118.72 256 251.648l-135.36 0.32c-13.488-59.040-60.752-105.152-120.368-116.992zM480.080 161.696l0.288 135.008c-59.232 12.32-106 58.48-119.152 117.36l-135.344 0.288c15.44-132.784 121.12-238 254.208-252.656z" data-tags="centiq-icon-set2_cen-icon-optiq" />
<glyph unicode="&#x66;" d="M512 960c-282.77 0-512-229.23-512-512s229.23-512 512-512 512 229.23 512 512-229.23 512-512 512zM320 448c0 106.040 85.96 192 192 192s192-85.96 192-192-85.96-192-192-192-192 85.96-192 192zM925.98 276.524v0l-177.42 73.49c12.518 30.184 19.44 63.276 19.44 97.986s-6.922 67.802-19.44 97.986l177.42 73.49c21.908-52.822 34.020-110.73 34.020-171.476s-12.114-118.654-34.020-171.476v0zM683.478 861.98v0 0l-73.49-177.42c-30.184 12.518-63.276 19.44-97.988 19.44s-67.802-6.922-97.986-19.44l-73.49 177.422c52.822 21.904 110.732 34.018 171.476 34.018 60.746 0 118.654-12.114 171.478-34.020zM98.020 619.476l177.422-73.49c-12.518-30.184-19.442-63.276-19.442-97.986s6.922-67.802 19.44-97.986l-177.42-73.49c-21.906 52.822-34.020 110.73-34.020 171.476s12.114 118.654 34.020 171.476zM340.524 34.020l73.49 177.42c30.184-12.518 63.276-19.44 97.986-19.44s67.802 6.922 97.986 19.44l73.49-177.42c-52.822-21.904-110.73-34.020-171.476-34.020-60.744 0-118.654 12.114-171.476 34.020z" data-tags="support, help, life, lifebuoy" />
<glyph unicode="&#x67;" d="M928 832h-832c-52.8 0-96-43.2-96-96v-640c0-52.8 43.2-96 96-96h832c52.8 0 96 43.2 96 96v640c0 52.8-43.2 96-96 96zM398.74 409.628l-270.74-210.892v501.642l270.74-290.75zM176.38 704h671.24l-335.62-252-335.62 252zM409.288 398.302l102.712-110.302 102.71 110.302 210.554-270.302h-626.528l210.552 270.302zM625.26 409.628l270.74 290.75v-501.642l-270.74 210.892z" data-tags="envelope, mail, email, contact, letter" />
<glyph unicode="&#x68;" d="M424.704 102.4c-22.272 0-43.366 10.394-56.883 28.314l-182.989 241.562c-23.808 31.437-17.613 76.186 13.824 99.994 31.488 23.859 76.186 17.613 99.994-13.824l120.371-158.925 302.694 485.939c20.838 33.434 64.87 43.674 98.355 22.835 33.434-20.787 43.674-64.87 22.784-98.304l-357.53-573.952c-12.442-20.019-33.894-32.563-57.395-33.587-1.075-0.051-2.15-0.051-3.226-0.051z" data-tags="checkmark, tick, correct" />
<glyph unicode="&#x69;" d="M1024 960v-384l-138.26 138.26-212-212-107.48 107.48 212 212-138.26 138.26zM245.74 821.74l212-212-107.48-107.48-212 212-138.26-138.26v384h384zM885.74 181.74l138.26 138.26v-384h-384l138.26 138.26-212 212 107.48 107.48zM457.74 286.26l-212-212 138.26-138.26h-384v384l138.26-138.26 212 212z" data-tags="expand, enlarge, maximize, fullscreen" />
<glyph unicode="&#x6c;" d="M448 384v448c-247.424 0-448-200.576-448-448s200.576-448 448-448 448 200.576 448 448c0 72.034-17.028 140.084-47.236 200.382l-400.764-200.382zM912.764 712.382c-73.552 146.816-225.374 247.618-400.764 247.618v-448l400.764 200.382z" data-tags="pie, statistics, stats, chart, graph" />
<glyph unicode="&#x6d;" d="M128 64h896v-128h-1024v1024h128zM288 128c-53.020 0-96 42.98-96 96s42.98 96 96 96c2.828 0 5.622-0.148 8.388-0.386l103.192 171.986c-9.84 15.070-15.58 33.062-15.58 52.402 0 53.020 42.98 96 96 96s96-42.98 96-96c0-19.342-5.74-37.332-15.58-52.402l103.192-171.986c2.766 0.238 5.56 0.386 8.388 0.386 2.136 0 4.248-0.094 6.35-0.23l170.356 298.122c-10.536 15.408-16.706 34.036-16.706 54.11 0 53.020 42.98 96 96 96s96-42.98 96-96c0-53.020-42.98-96-96-96-2.14 0-4.248 0.094-6.35 0.232l-170.356-298.124c10.536-15.406 16.706-34.036 16.706-54.11 0-53.020-42.98-96-96-96s-96 42.98-96 96c0 19.34 5.74 37.332 15.578 52.402l-103.19 171.984c-2.766-0.238-5.56-0.386-8.388-0.386s-5.622 0.146-8.388 0.386l-103.192-171.986c9.84-15.068 15.58-33.060 15.58-52.4 0-53.020-42.98-96-96-96z" data-tags="stats, graph, plot, statistics, chart" />
<glyph unicode="&#x6e;" d="M0 128h1024v-128h-1024zM128 384h128v-192h-128zM320 640h128v-448h-128zM512 448h128v-256h-128zM704 832h128v-640h-128z" data-tags="bars, statistics, stats, chart, graph" />
<glyph unicode="&#x70;" d="M842.012 370.52c-13.648 13.446-43.914 20.566-89.972 21.172-31.178 0.344-68.702-2.402-108.17-7.928-17.674 10.198-35.892 21.294-50.188 34.658-38.462 35.916-70.568 85.772-90.576 140.594 1.304 5.12 2.414 9.62 3.448 14.212 0 0 21.666 123.060 15.93 164.666-0.79 5.706-1.274 7.362-2.808 11.796l-1.882 4.834c-5.896 13.592-17.448 27.994-35.566 27.208l-10.916 0.344c-20.2 0-36.664-10.332-40.986-25.774-13.138-48.434 0.418-120.892 24.982-214.738l-6.288-15.286c-17.588-42.876-39.63-86.060-59.078-124.158l-2.528-4.952c-20.46-40.038-39.024-74.026-55.854-102.822l-17.376-9.188c-1.264-0.668-31.044-16.418-38.028-20.644-59.256-35.382-98.522-75.54-105.036-107.416-2.072-10.17-0.53-23.186 10.014-29.214l16.806-8.458c7.29-3.652 14.978-5.502 22.854-5.502 42.204 0 91.2 52.572 158.696 170.366 77.93 25.368 166.654 46.456 244.414 58.090 59.258-33.368 132.142-56.546 178.142-56.546 8.168 0 15.212 0.778 20.932 2.296 8.822 2.336 16.258 7.366 20.792 14.192 8.926 13.432 10.734 31.932 8.312 50.876-0.722 5.624-5.212 12.576-10.070 17.322zM211.646 145.952c7.696 21.042 38.16 62.644 83.204 99.556 2.832 2.296 9.808 8.832 16.194 14.902-47.102-75.124-78.646-105.066-99.398-114.458zM478.434 760.314c13.566 0 21.284-34.194 21.924-66.254s-6.858-54.56-16.158-71.208c-7.702 24.648-11.426 63.5-11.426 88.904 0 0-0.566 48.558 5.66 48.558zM398.852 322.506c9.45 16.916 19.282 34.756 29.33 53.678 24.492 46.316 39.958 82.556 51.478 112.346 22.91-41.684 51.444-77.12 84.986-105.512 4.184-3.542 8.618-7.102 13.274-10.65-68.21-13.496-127.164-29.91-179.068-49.862zM828.904 326.348c-4.154-2.598-16.054-4.1-23.708-4.1-24.706 0-55.272 11.294-98.126 29.666 16.468 1.218 31.562 1.838 45.1 1.838 24.782 0 32.12 0.108 56.35-6.072s24.538-18.734 20.384-21.332zM903.432 760.57l-142.864 142.862c-31.112 31.112-92.568 56.568-136.568 56.568h-480c-44 0-80-36-80-80v-864c0-44 36-80 80-80h736c44 0 80 36 80 80v608c0 44-25.456 105.458-56.568 136.57zM858.178 715.314c3.13-3.13 6.25-6.974 9.28-11.314h-163.458v163.456c4.34-3.030 8.184-6.15 11.314-9.28l142.864-142.862zM896 16c0-8.672-7.328-16-16-16h-736c-8.672 0-16 7.328-16 16v864c0 8.672 7.328 16 16 16h480c4.832 0 10.254-0.61 16-1.704v-254.296h254.296c1.094-5.746 1.704-11.166 1.704-16v-608z" data-tags="file-pdf, file, format, pdf" />
<glyph unicode="&#x71;" d="M384 448h-320v128h320v128l192-192-192-192zM1024 960v-832l-384-192v192h-384v256h64v-192h320v576l256 128h-576v-256h-64v320z" data-tags="enter, sign in, log in, login" />
<glyph unicode="&#x72;" d="M192 448h192v-64h-192v64zM192 320h192v-64h-192v64zM192 192h192v-64h-192v64zM903.432 760.57l-142.864 142.862c-31.112 31.112-92.568 56.568-136.568 56.568h-480c-44 0-80-36-80-80v-864c0-44 36-80 80-80h736c44 0 80 36 80 80v608c0 44-25.456 105.458-56.568 136.57zM858.178 715.314c3.13-3.13 6.25-6.974 9.28-11.314h-163.458v163.456c4.34-3.030 8.184-6.15 11.314-9.28l142.864-142.862zM896 16c0-8.672-7.328-16-16-16h-736c-8.672 0-16 7.328-16 16v864c0 8.672 7.328 16 16 16h480c4.832 0 10.254-0.61 16-1.704v-254.296h254.296c1.094-5.746 1.704-11.166 1.704-16v-608zM576 256h188.792c-14.826-73.032-79.386-128-156.792-128-88.366 0-160 71.634-160 160 0 77.406 54.97 141.966 128 156.792v-188.792zM672 512c88.366 0 160-71.634 160-160 0-10.958-1.108-21.66-3.208-32h-188.792v188.792c10.34 2.1 21.042 3.208 32 3.208z" data-tags="file-powerpoint" />
<glyph unicode="&#x73;" d="M296.96 348.16v317.44h-194.56c-56.32 0-102.4-46.080-102.4-102.4v-307.2c0-56.32 46.080-102.4 102.4-102.4h51.2v-153.6l153.6 153.6h256c56.32 0 102.4 46.080 102.4 102.4v93.184c-3.277-0.717-6.758-1.075-10.24-1.075h-358.4zM921.6 921.6h-460.8c-56.32 0-102.4-46.080-102.4-102.4v-409.6h358.4l153.6-153.6v153.6h51.2c56.32 0 102.4 46.080 102.4 102.4v307.2c0 56.32-46.080 102.4-102.4 102.4z" data-tags="chat, comments, talk, bubbles, conversation, discussion" />
<glyph unicode="&#x74;" d="M819.2 819.2h-614.4c-56.32 0-102.4-46.080-102.4-102.4v-358.4c0-56.32 46.080-102.4 102.4-102.4h204.8l204.8-153.6v153.6h204.8c56.32 0 102.4 46.080 102.4 102.4v358.4c0 56.32-46.080 102.4-102.4 102.4z" data-tags="comment, bubble, chat, talk, discussion, conversation" />
<glyph unicode="&#x75;" d="M512 890.88c-237.568 0-430.080-192.614-430.080-430.080 0-237.568 192.563-430.080 430.080-430.080s430.080 192.563 430.080 430.080c0 237.517-192.563 430.080-430.080 430.080zM770.56 513.126v-104.704h-517.12v104.704h517.12z" data-tags="minus, subtract, remove, delete" />
<glyph unicode="&#x76;" d="M512 890.88c-237.568 0-430.080-192.614-430.080-430.080 0-237.568 192.563-430.080 430.080-430.080s430.080 192.563 430.080 430.080c0 237.517-192.563 430.080-430.080 430.080zM564.326 408.474v-206.182h-104.653v206.182h-206.234v104.653h206.182v206.234h104.704v-206.182h206.182v-104.704h-206.182z" data-tags="plus, add, sum" />
<glyph unicode="&#x77;" d="M512 890.88c-237.568 0-430.080-192.614-430.080-430.080 0-237.568 192.563-430.080 430.080-430.080s430.080 192.563 430.080 430.080c0 237.517-192.563 430.080-430.080 430.080zM600.525 460.8l156.723-156.723-88.525-88.525-156.723 156.723-156.723-156.723-88.474 88.525 156.672 156.723-156.672 156.672 88.474 88.525 156.723-156.672 156.723 156.672 88.525-88.474-156.723-156.723z" data-tags="cross, cancel, close, remove, delete" />
<glyph unicode="&#x78;" d="M956.621 389.222l-161.178 383.59c-12.698 25.6-46.49 46.541-75.11 46.541h-104.909l19.456-208.128h138.24l-261.12-216.576-261.12 216.576h138.24l19.456 208.077h-104.858c-28.57 0-62.362-20.941-75.11-46.541l-161.178-383.59c-12.8-25.6-19.354-69.632-14.694-97.894l34.816-188.723c4.71-28.211 31.898-51.302 60.467-51.302h728.013c28.621 0 55.808 23.091 60.518 51.302l34.816 188.723c4.608 28.262-1.946 72.346-14.746 97.946zM886.784 254.771l-13.21-76.902c-3.994-29.542-30.618-53.709-59.085-53.709h-604.979c-28.518 0-55.142 24.166-59.085 53.709l-13.261 76.902c-3.942 29.542 16.179 53.709 44.698 53.709h660.275c28.57-0.051 48.64-24.166 44.646-53.709z" data-tags="install, download, store, storage, save" />
<glyph unicode="&#x79;" d="M983.040 752.998c-34.714-15.411-71.936-25.754-111.053-30.464 39.936 23.91 70.605 61.798 84.992 106.906-37.325-22.118-78.694-38.246-122.675-46.899-35.277 37.581-85.504 61.030-141.107 61.030-106.752 0-193.28-86.528-193.28-193.229 0-15.155 1.69-29.901 5.018-44.032-160.614 8.038-303.053 84.992-398.336 201.933-16.691-28.518-26.266-61.747-26.266-97.178 0-67.072 34.15-126.208 86.016-160.87-31.693 1.024-61.491 9.677-87.552 24.166 0-0.819 0-1.587 0-2.406 0-93.645 66.662-171.725 155.034-189.542-16.179-4.403-33.28-6.758-50.944-6.758-12.442 0-24.525 1.178-36.352 3.43 24.576-76.8 96-132.659 180.531-134.195-66.15-51.866-149.453-82.739-240.026-82.739-15.616 0-30.976 0.922-46.080 2.714 85.504-54.835 187.085-86.835 296.294-86.835 355.482 0 549.888 294.502 549.888 549.939 0 8.346-0.154 16.691-0.563 24.986 37.786 27.238 70.502 61.286 96.461 100.045z" data-tags="twitter, social" />
<glyph unicode="&#x7a;" d="M101.888 686.643c0-76.442 25.549-131.686 75.878-164.096 41.216-26.573 89.088-30.566 113.971-30.566 6.042 0 10.854 0.256 14.234 0.461 0 0-7.885-51.354 30.208-102.195l-1.741 0.051c-65.997 0-281.293-13.824-281.293-190.822 0-180.070 197.734-189.184 237.363-189.184 3.123 0 4.915 0.051 4.915 0.051 0.461 0 3.277-0.102 8.090-0.102 25.446 0 91.238 3.174 152.371 32.922 79.258 38.451 119.501 105.421 119.501 198.912 0 90.368-61.235 144.128-105.984 183.45-27.29 23.962-50.893 44.646-50.893 64.768 0 20.48 17.203 35.891 39.014 55.398 35.226 31.539 68.506 76.442 68.506 161.331 0 74.65-9.677 124.723-69.325 156.467 6.246 3.174 28.211 5.478 39.117 7.014 32.307 4.403 79.565 9.421 79.565 35.789v5.069h-235.418c-2.355-0.051-238.080-8.806-238.080-224.717zM481.946 225.178c4.506-71.987-57.088-125.133-149.555-131.84-93.901-6.912-171.264 35.379-175.77 107.366-2.15 34.56 13.005 68.403 42.752 95.386 30.208 27.29 71.578 44.134 116.685 47.514 5.325 0.307 10.598 0.563 15.872 0.563 86.886 0 145.766-51.098 150.016-118.989zM420.454 735.949c23.091-81.254-11.776-166.195-67.328-181.862-6.4-1.792-13.005-2.714-19.661-2.714-50.944 0-101.376 51.507-120.064 122.47-10.445 39.885-9.626 74.701 2.355 108.237 11.776 32.922 32.922 55.245 59.546 62.72 6.4 1.843 13.056 2.714 19.712 2.714 61.44 0 100.966-25.498 125.44-111.565zM817.203 559.002v153.6h-97.28v-153.6h-153.6v-97.28h153.6v-153.6h97.28v153.6h153.6v97.28h-153.6z" data-tags="googleplus, social" />
</font>
</defs>
</svg>
